<svg width="61" height="61" viewBox="0 0 61 61" fill="none" xmlns="http://www.w3.org/2000/svg">
<g clip-path="url(#clip0_28_308)">
<path d="M16.6455 47.5723H11.6455C10.9555 47.5723 10.3955 47.0123 10.3955 46.3223C10.3955 45.6323 10.9555 45.0723 11.6455 45.0723H16.6455C17.3355 45.0723 17.8955 45.6323 17.8955 46.3223C17.8955 47.0123 17.3355 47.5723 16.6455 47.5723Z" fill="#FCC153"/>
<path d="M57.2705 47.5723H54.1455C53.4555 47.5723 52.8955 47.0123 52.8955 46.3223C52.8955 45.6323 53.4555 45.0723 54.1455 45.0723H56.233L57.918 36.0923C57.8955 31.4973 53.9705 27.5723 49.1455 27.5723H40.938L36.9605 45.0723H44.1455C44.8355 45.0723 45.3955 45.6323 45.3955 46.3223C45.3955 47.0123 44.8355 47.5723 44.1455 47.5723H35.3955C35.0155 47.5723 34.6555 47.3998 34.418 47.1023C34.1805 46.8073 34.0905 46.4173 34.1755 46.0473L38.7205 26.0473C38.8505 25.4748 39.3555 25.0723 39.9405 25.0723H49.1455C55.348 25.0723 60.3955 30.1198 60.3955 36.3223L58.498 46.5523C58.388 47.1448 57.873 47.5723 57.2705 47.5723Z" fill="#FCC153"/>
<path d="M49.1455 52.5723C45.7005 52.5723 42.8955 49.7698 42.8955 46.3223C42.8955 42.8748 45.7005 40.0723 49.1455 40.0723C52.5905 40.0723 55.3955 42.8748 55.3955 46.3223C55.3955 49.7698 52.5905 52.5723 49.1455 52.5723ZM49.1455 42.5723C47.078 42.5723 45.3955 44.2548 45.3955 46.3223C45.3955 48.3898 47.078 50.0723 49.1455 50.0723C51.213 50.0723 52.8955 48.3898 52.8955 46.3223C52.8955 44.2548 51.213 42.5723 49.1455 42.5723Z" fill="#FCC153"/>
<path d="M21.6455 52.5723C18.2005 52.5723 15.3955 49.7698 15.3955 46.3223C15.3955 42.8748 18.2005 40.0723 21.6455 40.0723C25.0905 40.0723 27.8955 42.8748 27.8955 46.3223C27.8955 49.7698 25.0905 52.5723 21.6455 52.5723ZM21.6455 42.5723C19.578 42.5723 17.8955 44.2548 17.8955 46.3223C17.8955 48.3898 19.578 50.0723 21.6455 50.0723C23.713 50.0723 25.3955 48.3898 25.3955 46.3223C25.3955 44.2548 23.713 42.5723 21.6455 42.5723Z" fill="#FCC153"/>
<path d="M16.6455 25.0723H6.64551C5.95551 25.0723 5.39551 24.5123 5.39551 23.8223C5.39551 23.1323 5.95551 22.5723 6.64551 22.5723H16.6455C17.3355 22.5723 17.8955 23.1323 17.8955 23.8223C17.8955 24.5123 17.3355 25.0723 16.6455 25.0723Z" fill="#FCC153"/>
<path d="M16.6455 32.5723H4.14551C3.45551 32.5723 2.89551 32.0123 2.89551 31.3223C2.89551 30.6323 3.45551 30.0723 4.14551 30.0723H16.6455C17.3355 30.0723 17.8955 30.6323 17.8955 31.3223C17.8955 32.0123 17.3355 32.5723 16.6455 32.5723Z" fill="#FCC153"/>
<path d="M16.6455 40.0723H1.64551C0.955508 40.0723 0.395508 39.5123 0.395508 38.8223C0.395508 38.1323 0.955508 37.5723 1.64551 37.5723H16.6455C17.3355 37.5723 17.8955 38.1323 17.8955 38.8223C17.8955 39.5123 17.3355 40.0723 16.6455 40.0723Z" fill="#FCC153"/>
<path d="M35.3955 47.5723H26.6455C25.9555 47.5723 25.3955 47.0123 25.3955 46.3223C25.3955 45.6323 25.9555 45.0723 26.6455 45.0723H34.398L40.078 20.0723H11.6455C10.9555 20.0723 10.3955 19.5123 10.3955 18.8223C10.3955 18.1323 10.9555 17.5723 11.6455 17.5723H41.6455C42.0255 17.5723 42.3855 17.7448 42.623 18.0423C42.8605 18.3373 42.9505 18.7273 42.8655 19.0973L36.6155 46.5973C36.4855 47.1698 35.978 47.5723 35.3955 47.5723Z" fill="#FCC153"/>
</g>
<defs>
<clipPath id="clip0_28_308">
<rect width="60" height="60" fill="white" transform="translate(0.395508 0.0722656)"/>
</clipPath>
</defs>
</svg>
