<svg width="41" height="41" viewBox="0 0 41 41" fill="none" xmlns="http://www.w3.org/2000/svg">
<path d="M38.7734 10.852L21.2734 2.10205C21.1867 2.0587 21.091 2.03613 20.994 2.03613C20.8971 2.03613 20.8014 2.0587 20.7147 2.10205L3.21465 10.852C3.11076 10.904 3.02338 10.9838 2.96233 11.0826C2.90128 11.1814 2.86897 11.2953 2.86903 11.4114V28.9114C2.86839 29.0281 2.90043 29.1426 2.96151 29.242C3.02259 29.3414 3.11028 29.4218 3.21465 29.4739L20.7147 38.2239C20.8014 38.2673 20.8971 38.2898 20.994 38.2898C21.091 38.2898 21.1867 38.2673 21.2734 38.2239L38.7734 29.4739C38.8778 29.4218 38.9655 29.3414 39.0265 29.242C39.0876 29.1426 39.1197 29.0281 39.119 28.9114V11.4114C39.1191 11.2953 39.0868 11.1814 39.0257 11.0826C38.9647 10.9838 38.8773 10.904 38.7734 10.852ZM20.994 19.4627L16.1084 17.0195L31.7247 8.72392L37.0997 11.4114L20.994 19.4627ZM11.1084 14.5195L26.7247 6.22392L30.3497 8.03642L14.7353 16.3333L11.1084 14.5195ZM10.369 15.5477L14.119 17.4227V22.4027L12.6859 20.9695C12.5687 20.8523 12.4098 20.7865 12.244 20.7864H10.369V15.5477ZM20.994 3.36017L25.3515 5.53642L9.73528 13.8333L4.89153 11.4114L20.994 3.36017ZM4.11903 12.4227L9.11903 14.9227V21.4114C9.11903 21.5772 9.18488 21.7362 9.30209 21.8534C9.4193 21.9706 9.57827 22.0364 9.74403 22.0364H11.9853L14.3022 24.3533C14.3896 24.4407 14.5009 24.5002 14.6221 24.5243C14.7434 24.5484 14.869 24.536 14.9832 24.4887C15.0974 24.4414 15.195 24.3613 15.2637 24.2586C15.3323 24.1558 15.369 24.035 15.369 23.9114V18.0477L20.369 20.5477V36.6502L4.11903 28.5252V12.4227ZM21.619 36.6502V20.5477L37.869 12.4227V28.5252L21.619 36.6502Z" fill="#FCC153"/>
</svg>
