<svg width="41" height="41" viewBox="0 0 41 41" fill="none" xmlns="http://www.w3.org/2000/svg">
<path d="M25.9977 5.6407C25.6545 5.64126 25.3745 5.92491 25.3739 6.2779C25.3706 6.6336 25.6445 6.91699 25.9904 6.91753C32.9049 6.91753 38.4928 12.6342 38.4928 19.6871C38.4928 26.7349 32.8856 32.4493 25.9952 32.4493H21.8778L22.681 31.6265C22.9438 31.3609 22.9302 30.9705 22.6884 30.7183C22.4525 30.4776 22.0522 30.4635 21.807 30.7122L19.9296 32.6311C19.6865 32.8794 19.6789 33.2835 19.9271 33.5369L21.807 35.4558C22.0522 35.7045 22.447 35.7021 22.6884 35.4496C22.9302 35.1975 22.9377 34.8009 22.6811 34.5414L21.8766 33.7211L25.9953 33.7285C33.5405 33.7285 39.744 27.4718 39.744 19.6992C39.744 11.8967 33.5806 5.6407 25.9977 5.6407ZM25.8878 9.47242C24.7553 9.48569 23.6393 9.69552 22.5858 10.0864C20.4349 10.8845 18.5466 12.4321 17.3344 14.5797C17.3043 14.5787 17.2733 14.5773 17.2428 14.5773H10.9965C10.2259 14.5773 9.01286 15.1141 8.00454 15.5893C7.49125 15.8312 7.01088 16.07 6.62637 16.2423C6.43411 16.3285 6.26749 16.3972 6.14663 16.4401C6.08335 16.4625 6.02536 16.4789 5.99404 16.4889V15.8566C5.99404 15.5208 5.74176 15.2176 5.3666 15.2169H2.8666C2.52074 15.2175 2.2408 15.5009 2.24405 15.8566C2.24459 16.2095 2.52341 16.4957 2.8666 16.4962H4.74527V28.6188H2.8666C2.52343 28.6193 2.24459 28.9055 2.24405 29.2584C2.24459 29.6114 2.52341 29.8963 2.8666 29.8968H5.3666C5.70978 29.8962 5.99348 29.6113 5.99404 29.2584V28.6676C6.2789 28.7055 6.63204 28.7573 7.02065 28.8153C7.81476 28.934 8.78956 29.09 9.80752 29.2499C11.5189 29.5187 14.0172 29.8968 15.3703 29.8968C17.1571 29.8968 18.7641 29.0921 20.1444 27.9645C21.3501 28.8539 22.763 29.4783 24.3082 29.7491C29.3365 30.6303 34.2213 27.4935 35.6168 22.4763C37.0124 17.4592 34.4788 12.1685 29.733 10.2134C28.4761 9.69555 27.1714 9.45738 25.8878 9.47242ZM25.9013 10.748C27.027 10.7356 28.172 10.9465 29.2753 11.4011C33.4291 13.1123 35.6283 17.7565 34.4132 22.1248C33.1909 26.519 28.9044 29.2603 24.5121 28.4906C20.2899 27.7507 17.249 23.981 17.2465 19.6871C18.6154 19.6851 19.744 18.5665 19.744 17.1285C19.744 16.214 19.2774 15.411 18.5673 14.9606C20.1774 12.3166 22.9748 10.7803 25.9013 10.748ZM25.9953 13.2992C25.6521 13.2998 25.3745 13.5847 25.3739 13.9377V14.5773H24.13C23.1057 14.5773 22.2575 15.4131 22.2575 16.4889V18.4078C22.2575 19.4761 23.1008 20.3206 24.1251 20.3206L25.3715 20.3218L25.3702 23.509H24.13C23.784 23.509 23.5062 23.2276 23.5062 22.8767C23.5062 22.521 23.2259 22.2364 22.88 22.2358C22.5341 22.2364 22.2542 22.521 22.2575 22.8767C22.2575 23.945 23.1057 24.7883 24.13 24.7883H25.369V25.4279C25.3696 25.7809 25.6521 26.067 25.9952 26.0676C26.3384 26.067 26.6209 25.7809 26.6215 25.4279V24.7883H27.8812C28.9056 24.7883 29.7526 23.9549 29.7526 22.8767V20.9578C29.7526 19.8945 28.9275 19.0401 27.869 19.0401L26.6215 19.0413V15.8566H27.8812C28.2419 15.8566 28.5099 16.1629 28.5099 16.4889C28.5066 16.8446 28.7854 17.1341 29.1312 17.1346C29.4771 17.1341 29.7558 16.8446 29.7526 16.4889C29.7526 15.4106 28.9056 14.5773 27.8812 14.5773H26.6215V13.9377C26.6209 13.5847 26.3385 13.2998 25.9953 13.2992ZM6.54214 17.6546C6.71667 17.5928 6.90775 17.5099 7.11587 17.4166C7.53212 17.23 8.01494 16.9929 8.51724 16.7562C9.52184 16.2828 10.5268 15.8566 10.9965 15.8566H17.2428C17.957 15.8566 18.4953 16.444 18.4953 17.1285C18.4953 17.8429 17.9302 18.4078 17.2428 18.4078H12.869C12.5259 18.4083 12.2434 18.6945 12.2428 19.0474C12.2434 19.4004 12.5259 19.6865 12.869 19.6871H16.0001C15.9975 22.5995 17.2003 25.2589 19.1569 27.1332C17.9835 28.0429 16.7122 28.6188 15.3703 28.6188C14.2233 28.6188 12.0183 28.3036 9.99184 27.9852C8.9786 27.8261 8.00507 27.6689 7.19766 27.5482C6.72892 27.4782 6.3298 27.4217 5.99404 27.3859L5.99465 17.7694C6.16937 17.7694 6.3676 17.7165 6.54214 17.6546ZM24.13 15.8566H25.3727L25.3715 19.0438L24.1154 19.045C23.806 19.045 23.5087 18.7761 23.5087 18.4078V16.4889C23.5087 16.148 23.7694 15.8566 24.13 15.8566ZM26.6215 20.3243L27.8812 20.3255C28.2614 20.3255 28.5099 20.6319 28.5099 20.9578V22.8767C28.5099 23.1802 28.2712 23.509 27.8812 23.509H26.6215V20.3243Z" fill="#FCC153"/>
</svg>
