<svg width="61" height="61" viewBox="0 0 61 61" fill="none" xmlns="http://www.w3.org/2000/svg">
<g clip-path="url(#clip0_28_319)">
<path d="M17.4753 32.7448C17.4753 33.1177 17.3272 33.4754 17.0634 33.7391C16.7997 34.0029 16.442 34.151 16.0691 34.151H9.46168C9.08872 34.151 8.73103 34.0029 8.46731 33.7391C8.20359 33.4754 8.05543 33.1177 8.05543 32.7448C8.05543 32.3718 8.20359 32.0141 8.46731 31.7504C8.73103 31.4867 9.08872 31.3385 9.46168 31.3385H16.0691C16.442 31.3385 16.7997 31.4867 17.0634 31.7504C17.3272 32.0141 17.4753 32.3718 17.4753 32.7448ZM59.1355 41.569C57.5131 46.7721 53.9656 50.1196 48.2901 51.8018C48.0293 51.8791 47.7517 51.8791 47.4909 51.8018C41.8154 50.1196 38.2682 46.7725 36.6455 41.569C36.5955 41.4084 36.5482 41.247 36.5021 41.0849H3.58332C2.69512 41.0839 1.84358 40.7306 1.21555 40.1026C0.587517 39.4745 0.234298 38.6229 0.233398 37.7347L0.233398 11.635C0.234391 10.7468 0.587651 9.89534 1.21567 9.26735C1.84369 8.63935 2.69518 8.28612 3.58332 8.28516H45.9466C46.8347 8.28612 47.6862 8.63935 48.3143 9.26735C48.9423 9.89534 49.2955 10.7468 49.2965 11.635V21.8782L59.12 25.6516C59.3726 25.7487 59.5919 25.9165 59.7515 26.1351C59.9111 26.3537 60.0043 26.6137 60.0198 26.8839C60.3343 32.3583 60.4846 37.2421 59.1357 41.5684L59.1355 41.569ZM3.0459 11.635V17.9419H46.4845V11.635C46.4826 11.493 46.4254 11.3574 46.325 11.2571C46.2246 11.1567 46.089 11.0995 45.9471 11.0977H3.58332C3.44138 11.0995 3.30578 11.1567 3.20539 11.2571C3.10501 11.3574 3.04778 11.493 3.0459 11.635ZM35.9027 38.2717C35.3811 34.8016 35.5244 31.0105 35.7612 26.8833C35.7767 26.6131 35.8699 26.3531 36.0295 26.1345C36.1891 25.916 36.4084 25.7481 36.661 25.6511L46.4845 21.8776V20.7538H3.0459V37.7343C3.04775 37.8762 3.10497 38.0118 3.20536 38.1122C3.30575 38.2126 3.44137 38.2697 3.58332 38.2716L35.9027 38.2717ZM57.2628 27.9512L47.8907 24.3513L38.5186 27.9512C38.2583 32.7782 38.1932 37.0834 39.3308 40.7319C40.633 44.9087 43.3585 47.5393 47.8907 48.9826C52.423 47.5393 55.1484 44.9087 56.4507 40.7319C57.5882 37.0829 57.5232 32.7777 57.2628 27.9512ZM52.3058 31.2533L47.1993 36.3598L45.9975 35.1579C45.7335 34.8953 45.3762 34.7482 45.0039 34.7487C44.6316 34.7492 44.2747 34.8973 44.0114 35.1605C43.7482 35.4238 43.6 35.7807 43.5995 36.153C43.599 36.5253 43.7461 36.8826 44.0087 37.1466L46.2048 39.3418C46.3354 39.4724 46.4904 39.576 46.661 39.6467C46.8316 39.7174 47.0145 39.7537 47.1992 39.7537C47.3838 39.7537 47.5667 39.7174 47.7373 39.6467C47.9079 39.576 48.063 39.4724 48.1936 39.3418L54.2942 33.2412C54.5568 32.9772 54.7039 32.6199 54.7034 32.2476C54.7029 31.8753 54.5548 31.5184 54.2916 31.2551C54.0283 30.9919 53.6714 30.8437 53.2991 30.8432C52.9268 30.8427 52.5695 30.9899 52.3055 31.2524L52.3058 31.2533Z" fill="#FCC153"/>
</g>
<defs>
<clipPath id="clip0_28_319">
<rect width="60" height="60" fill="white" transform="translate(0.233398 0.0722656)"/>
</clipPath>
</defs>
</svg>
